<?xml version="1.0" encoding="utf-8"?>
<!-- Generator: Adobe Illustrator 23.0.6, SVG Export Plug-In . SVG Version: 6.00 Build 0)  -->
<svg version="1.1" id="logo" xmlns="http://www.w3.org/2000/svg" xmlns:xlink="http://www.w3.org/1999/xlink" x="0px" y="0px"
	 width="190px" height="164px" viewBox="0 0 190 164" style="enable-background:new 0 0 190 164;" xml:space="preserve">
<style type="text/css">
	.st0{fill:#FFFFFF;}
</style>
<path class="st0" d="M57.9,50.5c-1.3-1.1-2.9-1.2-4.4-1.2h-5.1v26.5h3.1V64.4h1.9c0.9,0,3.5,0,5-1.8c1.2-1.4,1.2-2.8,1.2-4.1v-2.9
	C59.5,53.7,59.5,51.8,57.9,50.5 M56.5,58.6c0,1.4-0.3,2-0.6,2.3c-0.5,0.6-1.3,0.7-2.2,0.7h-2.2v-9.5h2c1.4,0,1.8,0.1,2.3,0.5
	c0.7,0.5,0.8,1.4,0.8,3.7L56.5,58.6L56.5,58.6z M69.8,63.2l0.2-0.1c0.6-0.3,2.3-1,2.8-3c0.2-0.6,0.2-1.5,0.2-1.8l0-4
	c0-0.7,0-2.7-1.6-4c-1.2-0.9-2.6-1-4-1h-5.5v26.5h3.1V63.6h1.6l4.6,12.2l0,0h3.2l-4.7-12.6C69.7,63.3,69.8,63.2,69.8,63.2
	 M69.8,54.9v3.9c0,0.7-0.1,1.5-1.1,1.8c-0.2,0.1-0.6,0.2-1.3,0.2h-2.6v-8.6h2.6c0.6,0,1.1,0,1.5,0.3C69.7,52.9,69.8,53.9,69.8,54.9
	 M84.8,50.1c-1-0.7-2.2-1.1-3.6-1.1h-0.1c-2.6,0-4.6,1.3-5.3,3.5c-0.3,0.8-0.4,1.9-0.4,3.1v14.2c0,1.5,0.1,3.1,1.3,4.6
	c1.3,1.6,3.5,1.8,4.4,1.8c3.2,0,4.6-1.7,5-2.5c0.7-1.1,0.8-2.3,0.8-3.6V56.2C86.9,54.2,86.9,51.7,84.8,50.1 M82.8,72.9
	c-0.4,0.3-1,0.5-1.6,0.5c-1.9,0-2.5-1.4-2.5-1.5c-0.2-0.6-0.3-1.3-0.3-2.7l0-14c0-1.4,0.4-2.3,1.2-2.8c0.5-0.3,1-0.4,1.6-0.4
	c0.8,0,1.2,0.2,1.4,0.3c0.5,0.3,0.7,0.7,0.9,0.9c0.5,0.9,0.5,2,0.5,4v12.3C83.9,70.8,83.8,72.1,82.8,72.9 M92.6,49.4h-2.8v26.5h4
	c0.5,0,1.4,0,2.1-0.2c1.4-0.3,2.4-1.1,2.8-1.4c2-1.7,2.3-4,2.4-6c0-0.8,0-1.5,0-2.3v-5.6c0-4.3-0.3-6.8-1.9-8.7
	C97.4,49.5,94.9,49.4,92.6,49.4 M98.1,60.3v5.8c0,3.7-0.5,5.2-1.8,6.2c-0.8,0.5-1.6,0.7-2.7,0.7h-0.8V52.3h0.7
	c0.1,0,0.9,0.1,1.6,0.2c0.5,0.1,1.6,0.6,2.2,1.7C98.1,55.8,98.1,58.9,98.1,60.3 M112.1,49.4h3.1v20.9c0,1.1-0.1,2-0.4,2.8
	c-1.1,3-4.1,3.3-5.3,3.3c-0.7,0-2.3-0.1-3.6-1.1c-0.3-0.2-0.7-0.6-0.9-1c-1.1-1.5-1.1-3.1-1.1-4.7V49.4h3v20.2
	c0,1.5,0.1,2.3,0.5,2.8c0.3,0.4,0.9,1,2.2,1c0.9,0,1.4-0.3,1.7-0.5c0.9-0.7,0.9-1.6,0.9-4.1V49.4z M126,65.9h3.1v4.5
	c0,1.3-0.1,1.9-0.4,2.6c-0.4,1.2-1.7,3.3-5.4,3.3c-3,0-4.6-1.8-5.2-3.5c-0.3-0.9-0.4-1.7-0.4-3.2V55.7c0-1.5,0-3,1.1-4.4
	c1-1.4,2.6-2.2,4.6-2.2c2.5,0,4.3,1.1,5,3c0.3,0.7,0.4,1.5,0.4,2.5v4.2h-3v-2.3c0-1.8,0-2.8-0.4-3.5c0,0-0.2-0.4-0.7-0.7
	c-0.3-0.1-0.6-0.3-1.3-0.3c-0.5,0-1.1,0.1-1.5,0.4c-1.2,0.7-1.2,2.3-1.2,2.8l0,13c0,1.3,0,3,0.6,4c0.2,0.3,0.4,0.6,0.8,0.8
	c0.6,0.3,1.2,0.3,1.5,0.3c0.6,0,1-0.2,1.3-0.3c1-0.5,1.1-1.6,1.1-2.4V65.9z M134.4,52.2v8.4h5.9v2.8h-5.9V73h7.2v2.9h-10.2V49.4
	h10.2v2.9H134.4z M119.1,41.8l2.2,3.8H68.7l2.2-3.8H119.1z M112.7,38L95,7.3L77.3,38h-4.2L95,0.1l21.9,38H112.7z M103.6,26l0.2,0
	l-4.6,9.4l0,2.6h-8.3l0-2.6l-4.6-9.3l0.2,0l0.2,0.2c1.2,1.3,2.7,1.4,2.9,1.4l0.2,0l-0.5,1.8c1,1.4,2.4,1.8,2.7,1.9
	c0.3-0.3,1.1-1.4,1.4-1.9v-1l-1.4-1.3l0.1-0.1c1.9-2.1,2.7-5.9,2.7-5.9H95h0.1c0,0,0.8,3.8,2.7,5.9l0.1,0.1l-1.4,1.3v1
	c0.3,0.5,1.2,1.6,1.4,1.9c0.3-0.1,1.7-0.5,2.7-1.9l-0.5-1.8l0.2,0c0.3,0,1.8-0.1,2.9-1.4L103.6,26z M109.8,114.6
	c0,8.1-6.6,14.7-14.7,14.7c-8.1,0-14.7-6.6-14.7-14.7c0-8.1,6.6-14.7,14.7-14.7C103.3,100,109.8,106.5,109.8,114.6 M95.8,147.6v1v0
	c0,0.6-0.2,0.9-0.3,1.1c-0.3,0.3-0.6,0.3-1,0.3h-1v-4.4h0.9c0.7,0,0.8,0.1,1.1,0.2C95.7,146.2,95.8,146.6,95.8,147.6 M115.9,147.3
	l0.9,5.3H115L115.9,147.3z M73.3,147.3l0.9,5.3h-1.8L73.3,147.3z M141.8,81.1l-5.6,7.1l-6.9-8.8l-6.9,8.8l-6.9-8.8l-6.9,8.8
	l-6.9-8.8L95,88.2l-6.9-8.8l-6.9,8.8l-6.9-8.8l-6.9,8.8l-6.9-8.8l-6.9,8.8l-5.6-7.1L0.4,163.9h189.2L141.8,81.1z M54.6,153.9
	c0,0.4-0.1,0.8-0.2,1.1c-0.1,0.4-0.3,0.7-0.5,0.9c-0.2,0.3-0.5,0.5-0.8,0.6c-0.3,0.2-0.7,0.2-1.1,0.2c-0.5,0-0.9-0.1-1.2-0.4
	c-0.3-0.2-0.5-0.4-0.7-0.7l1.1-1c0.1,0.1,0.2,0.2,0.4,0.3c0.2,0.1,0.3,0.1,0.5,0.1c0.1,0,0.2,0,0.4-0.1c0.1,0,0.3-0.1,0.4-0.3
	c0.1-0.1,0.2-0.3,0.3-0.5c0.1-0.2,0.1-0.5,0.1-0.8v-9.2h1.4V153.9z M66.9,137.2h-3.7H55h-3.6v-6.3H55v-30h-5l5-8.8h8.2v38.8h3.7
	V137.2z M74.9,156.7l-0.5-2.7h-2.4l-0.5,2.7h-1.4l2.5-12.3h1.2l2.5,12.3H74.9z M97.2,148.7c0,0.6,0,1.3-0.5,1.9
	c-0.7,0.9-1.9,0.9-2.3,0.9h-0.9v5.3H92v-12.3h2.4c0.7,0,1.5,0,2,0.5c0.7,0.6,0.7,1.5,0.7,2.4V148.7z M95.2,137.2
	c-6.2,0-11.6-2.2-16-6.6c-4.4-4.4-6.6-9.7-6.6-16c0-6.2,2.2-11.6,6.6-16c4.4-4.4,9.7-6.6,16-6.6c6.2,0,11.6,2.2,16,6.6
	c4.4,4.4,6.6,9.7,6.6,16c0,6.2-2.2,11.6-6.6,16C106.7,135,101.4,137.2,95.2,137.2 M117.5,156.7l-0.5-2.7h-2.4l-0.5,2.7h-1.4
	l2.5-12.3h1.2l2.5,12.3H117.5z M140,156.7h-1.3l-2.7-8.2l0,8.2h-1.4v-12.3h1.4l2.6,8.2l0-8.2h1.4V156.7z M140,137.2h-3.7h-8.2h-3.6
	v-6.3h3.6v-30h-5l5-8.8h8.2v38.8h3.7V137.2z"/>
</svg>
